<svg xmlns="http://www.w3.org/2000/svg" width="1830" height="850" viewBox="0 0 1830 850"><rect width="100%" height="100%" fill="white"/><defs><marker id="arr" viewBox="0 0 10 10" refX="9" refY="5" markerWidth="8" markerHeight="8" orient="auto-start-reverse"><path d="M 0 0 L 10 5 L 0 10 z" fill="#555555"/></marker></defs><text x="50" y="48" font-family="Arial,sans-serif" font-size="27" font-weight="700" fill="#202020">ERD KHÁI QUÁT — CÁC THỰC THỂ TRỤ CỘT</text><text x="50" y="79" font-family="Arial,sans-serif" font-size="17" fill="#666666">55 bảng chi tiết nằm trong DDL; sơ đồ này giúp định vị miền dữ liệu</text><polyline points="607.5,225 607.5,360" fill="none" stroke="#555555" stroke-width="2.5" marker-end="url(#arr)"/><rect x="580.5" y="333" width="54" height="22" fill="white"/><text x="607.5" y="349" text-anchor="middle" font-family="Arial,sans-serif" font-size="13" fill="#333333">1 - N</text><polyline points="725,177.5 900,177.5" fill="none" stroke="#555555" stroke-width="2.5" marker-end="url(#arr)"/><rect x="873" y="150.5" width="54" height="22" fill="white"/><text x="900" y="166.5" text-anchor="middle" font-family="Arial,sans-serif" font-size="13" fill="#333333">1 - N</text><polyline points="900,177.5 725,407.5" fill="none" stroke="#555555" stroke-width="2.5" marker-end="url(#arr)"/><rect x="678" y="380.5" width="94" height="22" fill="white"/><text x="725" y="396.5" text-anchor="middle" font-family="Arial,sans-serif" font-size="13" fill="#333333">logic XMOD</text><polyline points="900,407.5 725,407.5" fill="none" stroke="#555555" stroke-width="2.5" marker-end="url(#arr)"/><rect x="678" y="380.5" width="94" height="22" fill="white"/><text x="725" y="396.5" text-anchor="middle" font-family="Arial,sans-serif" font-size="13" fill="#333333">logic XMOD</text><polyline points="315,177.5 490,407.5" fill="none" stroke="#555555" stroke-width="2.5" marker-end="url(#arr)"/><rect x="431" y="380.5" width="118" height="22" fill="white"/><text x="490" y="396.5" text-anchor="middle" font-family="Arial,sans-serif" font-size="13" fill="#333333">assignee XMOD</text><polyline points="490,407.5 315,637.5" fill="none" stroke="#555555" stroke-width="2.5" marker-end="url(#arr)"/><polyline points="725,407.5 900,637.5" fill="none" stroke="#555555" stroke-width="2.5" marker-end="url(#arr)"/><polyline points="315,637.5 1320,637.5" fill="none" stroke="#555555" stroke-width="2.5" marker-end="url(#arr)"/><polyline points="1135,637.5 1320,637.5" fill="none" stroke="#555555" stroke-width="2.5" marker-end="url(#arr)"/><rect x="80" y="130" width="235" height="95" rx="9" fill="#EEEEEE" stroke="#333333" stroke-width="2"/><text x="197.5" y="171.82" text-anchor="middle" font-family="Arial,sans-serif" font-size="23" font-weight="700" fill="#202020"><tspan x="197.5" dy="0">User</tspan><tspan x="197.5" dy="27">PK UserId</tspan></text><rect x="490" y="130" width="235" height="95" rx="9" fill="#EEEEEE" stroke="#333333" stroke-width="2"/><text x="607.5" y="171.82" text-anchor="middle" font-family="Arial,sans-serif" font-size="23" font-weight="700" fill="#202020"><tspan x="607.5" dy="0">Project</tspan><tspan x="607.5" dy="27">PK ProjectId</tspan></text><rect x="900" y="130" width="235" height="95" rx="9" fill="#EEEEEE" stroke="#333333" stroke-width="2"/><text x="1017.5" y="171.82" text-anchor="middle" font-family="Arial,sans-serif" font-size="23" font-weight="700" fill="#202020"><tspan x="1017.5" dy="0">Sprint</tspan><tspan x="1017.5" dy="27">PK SprintId</tspan></text><rect x="490" y="360" width="235" height="95" rx="9" fill="#EEEEEE" stroke="#333333" stroke-width="2"/><text x="607.5" y="401.82" text-anchor="middle" font-family="Arial,sans-serif" font-size="23" font-weight="700" fill="#202020"><tspan x="607.5" dy="0">Issue</tspan><tspan x="607.5" dy="27">PK IssueId</tspan></text><rect x="900" y="360" width="235" height="95" rx="9" fill="#FFFFFF" stroke="#777777" stroke-width="2"/><text x="1017.5" y="401.82" text-anchor="middle" font-family="Arial,sans-serif" font-size="23" font-weight="400" fill="#202020"><tspan x="1017.5" dy="0">WorkflowStatus</tspan><tspan x="1017.5" dy="27">PK StatusId</tspan></text><rect x="80" y="590" width="235" height="95" rx="9" fill="#FFFFFF" stroke="#777777" stroke-width="2"/><text x="197.5" y="631.82" text-anchor="middle" font-family="Arial,sans-serif" font-size="23" font-weight="400" fill="#202020"><tspan x="197.5" dy="0">AiGenerationLog</tspan><tspan x="197.5" dy="27">AI 1 request</tspan></text><rect x="900" y="590" width="235" height="95" rx="9" fill="#FFFFFF" stroke="#777777" stroke-width="2"/><text x="1017.5" y="631.82" text-anchor="middle" font-family="Arial,sans-serif" font-size="23" font-weight="400" fill="#202020"><tspan x="1017.5" dy="0">AiAssignmentRun</tspan><tspan x="1017.5" dy="27">AI 2 request</tspan></text><rect x="1320" y="590" width="235" height="95" rx="9" fill="#FFFFFF" stroke="#777777" stroke-width="2"/><text x="1437.5" y="631.82" text-anchor="middle" font-family="Arial,sans-serif" font-size="23" font-weight="400" fill="#202020"><tspan x="1437.5" dy="0">AiDatasetSample</tspan><tspan x="1437.5" dy="27">feedback + label</tspan></text><text x="50" y="822" font-family="Arial,sans-serif" font-size="14" fill="#777777">Hệ thống Quản lý Dự án Scrum tích hợp AI · Sơ đồ chỉnh sửa được: Cam-nang-so-do.drawio / 08 ERD khái quát</text></svg>