<svg xmlns="http://www.w3.org/2000/svg" width="1900" height="730" viewBox="0 0 1900 730"><rect width="100%" height="100%" fill="white"/><defs><marker id="arr" viewBox="0 0 10 10" refX="9" refY="5" markerWidth="8" markerHeight="8" orient="auto-start-reverse"><path d="M 0 0 L 10 5 L 0 10 z" fill="#555555"/></marker></defs><text x="50" y="48" font-family="Arial,sans-serif" font-size="27" font-weight="700" fill="#202020">CI/CD — KIỂM SOÁT TỪ PR ĐẾN TEST</text><text x="50" y="79" font-family="Arial,sans-serif" font-size="17" fill="#666666">Kiểm thử trước merge; triển khai artifact định danh; DB có kế hoạch phục hồi riêng</text><polyline points="255,325 300,325" fill="none" stroke="#555555" stroke-width="2.5" marker-end="url(#arr)"/><polyline points="540,325 590,325" fill="none" stroke="#555555" stroke-width="2.5" marker-end="url(#arr)"/><polyline points="810,325 860,325" fill="none" stroke="#555555" stroke-width="2.5" marker-end="url(#arr)"/><polyline points="1080,325 1130,325" fill="none" stroke="#555555" stroke-width="2.5" marker-end="url(#arr)"/><polyline points="1350,325 1400,325" fill="none" stroke="#555555" stroke-width="2.5" marker-end="url(#arr)"/><polyline points="1620,325 1670,325" fill="none" stroke="#555555" stroke-width="2.5" marker-end="url(#arr)"/><polyline points="1670,325 1650,542.5" fill="none" stroke="#555555" stroke-width="2.5" marker-end="url(#arr)"/><rect x="1627.5" y="515.5" width="45" height="22" fill="white"/><text x="1650" y="531.5" text-anchor="middle" font-family="Arial,sans-serif" font-size="13" fill="#333333">lỗi</text><rect x="40" y="280" width="215" height="90" rx="9" fill="#FFFFFF" stroke="#777777" stroke-width="2"/><text x="147.5" y="319.32" text-anchor="middle" font-family="Arial,sans-serif" font-size="23" font-weight="400" fill="#202020"><tspan x="147.5" dy="0">Pull Request</tspan><tspan x="147.5" dy="27">vào develop</tspan></text><rect x="300" y="280" width="240" height="90" rx="9" fill="#EEEEEE" stroke="#333333" stroke-width="2"/><text x="420" y="305.82" text-anchor="middle" font-family="Arial,sans-serif" font-size="23" font-weight="700" fill="#202020"><tspan x="420" dy="0">CI</tspan><tspan x="420" dy="27">.NET + Angular +</tspan><tspan x="420" dy="27">Compose</tspan></text><polygon points="700,280 810,325 700,370 590,325" fill="#EEEEEE" stroke="#333333" stroke-width="2"/><text x="700" y="331.8" text-anchor="middle" font-family="Arial,sans-serif" font-size="20" font-weight="400" fill="#202020"><tspan x="700" dy="0">CI đạt?</tspan></text><rect x="860" y="280" width="220" height="90" rx="9" fill="#FFFFFF" stroke="#777777" stroke-width="2"/><text x="970" y="305.82" text-anchor="middle" font-family="Arial,sans-serif" font-size="23" font-weight="400" fill="#202020"><tspan x="970" dy="0">Artifact</tspan><tspan x="970" dy="27">gắn với commit</tspan><tspan x="970" dy="27">SHA</tspan></text><rect x="1130" y="280" width="220" height="90" rx="9" fill="#FFFFFF" stroke="#777777" stroke-width="2"/><text x="1240" y="305.82" text-anchor="middle" font-family="Arial,sans-serif" font-size="23" font-weight="400" fill="#202020"><tspan x="1240" dy="0">Backup app + DB</tspan><tspan x="1240" dy="27">Migration</tspan><tspan x="1240" dy="27">rehearsal</tspan></text><rect x="1400" y="280" width="220" height="90" rx="9" fill="#EEEEEE" stroke="#333333" stroke-width="2"/><text x="1510" y="319.32" text-anchor="middle" font-family="Arial,sans-serif" font-size="23" font-weight="700" fill="#202020"><tspan x="1510" dy="0">Deploy TEST</tspan><tspan x="1510" dy="27">IIS / container</tspan></text><polygon points="1770,280 1870,325 1770,370 1670,325" fill="#EEEEEE" stroke="#333333" stroke-width="2"/><text x="1770" y="331.8" text-anchor="middle" font-family="Arial,sans-serif" font-size="20" font-weight="400" fill="#202020"><tspan x="1770" dy="0">Smoke đạt?</tspan></text><rect x="1390" y="490" width="260" height="105" rx="9" fill="#F5F5F5" stroke="#777777" stroke-width="2" stroke-dasharray="7 5"/><text x="1520" y="537.46" text-anchor="middle" font-family="Arial,sans-serif" font-size="19" font-weight="400" fill="#202020"><tspan x="1520" dy="0">Nếu lỗi: rollback app</tspan><tspan x="1520" dy="23">DB restore/forward-fix</tspan></text><text x="50" y="702" font-family="Arial,sans-serif" font-size="14" fill="#777777">Hệ thống Quản lý Dự án Scrum tích hợp AI · Sơ đồ chỉnh sửa được: Cam-nang-so-do.drawio / 12 CI CD</text></svg>